<svg width="308" height="150" viewBox="0 0 308 150" fill="none" xmlns="http://www.w3.org/2000/svg">
<path d="M118.25 87.0581C117.39 92.9961 115.302 98.6922 112.118 103.787C108.933 108.881 104.722 113.264 99.75 116.658C98.5 111.497 90.8125 107.268 80.75 106.086C81.8125 98.6866 84 91.7841 85.5 87.8043C87.875 89.2967 90.625 90.1673 93.75 90.1673C115.937 90.1673 112.5 52.8567 112.5 52.8567C112.5 52.8567 109.375 59.0751 100 59.0751H93.75C90.9698 59.0743 88.2398 59.8116 85.8416 61.2109C83.4434 62.6101 81.4638 64.6207 80.1072 67.0351C78.7506 69.4495 78.0659 72.1804 78.124 74.9459C78.1821 77.7114 78.9807 80.4114 80.4375 82.7674C84.5625 78.4766 89 74.6212 93.75 71.512C85.5 79.7825 79.1875 90.1673 75 100.117C71.0625 92.4681 66.125 86.6228 62.5 83.9489C65.4375 85.1926 68.1875 87.0581 70.8125 88.9236C71.5 87.4312 71.875 85.7522 71.875 83.9489C71.5625 66.9725 43.75 68.4028 43.75 68.4028C45.6875 71.0145 46.875 74.3103 46.875 77.7304V83.9489C46.875 90.7891 52.5 96.3857 59.375 96.3857C62.5 96.3857 65.3125 95.2664 67.5 93.2765C68.9375 97.1941 70 101.671 70.5625 105.962C59.8125 106.895 51.5625 111.248 50.25 116.72C38.8125 108.823 31.25 95.7017 31.25 80.8396C31.25 56.8365 50.875 37.3106 75 37.3106V55.9659L106.25 31.0922L75 6.21843V24.8737C60.0816 24.8737 45.7742 30.7701 35.2252 41.2658C24.6763 51.7614 18.75 65.9966 18.75 80.8396C18.75 95.6827 24.6763 109.918 35.2252 120.414C45.7742 130.909 60.0816 136.806 75 136.806C103.938 136.806 127.75 115.041 130.875 87.0581H118.25Z" fill="url(#paint0_linear_3_10)"/>
<path d="M154.992 40.296H175.584V44.76H159.648V55.848H173.616V60.264H159.648V75H154.992V40.296ZM181.414 75L196.582 38.856H196.87L211.99 75H206.662L195.334 46.152L198.646 43.992L185.974 75H181.414ZM190.294 61.848H203.206L204.742 65.88H188.95L190.294 61.848ZM232.542 40.296C234.302 40.296 235.918 40.536 237.39 41.016C238.894 41.464 240.19 42.152 241.278 43.08C242.398 43.976 243.262 45.096 243.87 46.44C244.51 47.752 244.83 49.288 244.83 51.048C244.83 52.424 244.622 53.768 244.206 55.08C243.822 56.392 243.166 57.592 242.238 58.68C241.31 59.736 240.094 60.6 238.59 61.272C237.118 61.912 235.294 62.232 233.118 62.232H227.982V75H223.326V40.296H232.542ZM233.022 57.768C234.398 57.768 235.534 57.56 236.43 57.144C237.358 56.728 238.078 56.2 238.59 55.56C239.102 54.888 239.47 54.168 239.694 53.4C239.918 52.632 240.03 51.912 240.03 51.24C240.03 50.536 239.902 49.816 239.646 49.08C239.422 48.312 239.038 47.608 238.494 46.968C237.982 46.328 237.294 45.8 236.43 45.384C235.598 44.968 234.574 44.76 233.358 44.76H227.982V57.768H233.022ZM238.734 60.408L247.806 75H242.43L233.214 60.552L238.734 60.408ZM259.767 75V39.192H259.815L278.007 65.016L276.039 64.632L294.183 39.192H294.279V75H289.671V49.752L289.959 52.104L276.855 70.632H276.759L263.463 52.104L264.279 49.944V75H259.767ZM182.592 119.784C182.144 120.232 181.472 120.664 180.576 121.08C179.712 121.496 178.736 121.88 177.648 122.232C176.56 122.584 175.44 122.856 174.288 123.048C173.136 123.272 172.048 123.384 171.024 123.384C168.208 123.384 165.664 122.952 163.392 122.088C161.152 121.224 159.216 120.04 157.584 118.536C155.984 117 154.752 115.192 153.888 113.112C153.056 111.032 152.64 108.776 152.64 106.344C152.64 103.304 153.12 100.632 154.08 98.328C155.04 95.992 156.352 94.04 158.016 92.472C159.68 90.872 161.584 89.672 163.728 88.872C165.904 88.072 168.192 87.672 170.592 87.672C172.704 87.672 174.656 87.912 176.448 88.392C178.272 88.872 179.824 89.48 181.104 90.216L179.28 95.4C178.672 95.048 177.888 94.712 176.928 94.392C175.968 94.04 174.992 93.768 174 93.576C173.04 93.384 172.144 93.288 171.312 93.288C169.296 93.288 167.488 93.576 165.888 94.152C164.32 94.696 162.976 95.512 161.856 96.6C160.736 97.688 159.872 99.016 159.264 100.584C158.688 102.12 158.4 103.88 158.4 105.864C158.4 107.656 158.704 109.288 159.312 110.76C159.952 112.232 160.832 113.496 161.952 114.552C163.104 115.608 164.448 116.424 165.984 117C167.552 117.544 169.28 117.816 171.168 117.816C172.256 117.816 173.312 117.72 174.336 117.528C175.36 117.336 176.224 117.032 176.928 116.616V110.808H170.4V105.432H182.592V119.784ZM193.721 105.576C193.721 103.144 194.185 100.856 195.113 98.712C196.041 96.568 197.321 94.664 198.953 93C200.585 91.336 202.473 90.04 204.617 89.112C206.793 88.152 209.113 87.672 211.577 87.672C214.009 87.672 216.297 88.152 218.441 89.112C220.617 90.04 222.521 91.336 224.153 93C225.817 94.664 227.113 96.568 228.041 98.712C229.001 100.856 229.481 103.144 229.481 105.576C229.481 108.04 229.001 110.344 228.041 112.488C227.113 114.632 225.817 116.536 224.153 118.2C222.521 119.832 220.617 121.112 218.441 122.04C216.297 122.936 214.009 123.384 211.577 123.384C209.081 123.384 206.761 122.936 204.617 122.04C202.473 121.112 200.585 119.848 198.953 118.248C197.321 116.616 196.041 114.728 195.113 112.584C194.185 110.408 193.721 108.072 193.721 105.576ZM199.481 105.576C199.481 107.304 199.785 108.92 200.393 110.424C201.033 111.928 201.913 113.256 203.033 114.408C204.153 115.528 205.449 116.408 206.921 117.048C208.393 117.688 209.993 118.008 211.721 118.008C213.385 118.008 214.937 117.688 216.377 117.048C217.849 116.408 219.129 115.528 220.217 114.408C221.305 113.256 222.153 111.928 222.761 110.424C223.401 108.92 223.721 107.304 223.721 105.576C223.721 103.816 223.401 102.184 222.761 100.68C222.121 99.176 221.257 97.848 220.169 96.696C219.081 95.544 217.801 94.648 216.329 94.008C214.857 93.368 213.273 93.048 211.577 93.048C209.881 93.048 208.297 93.368 206.825 94.008C205.353 94.648 204.057 95.544 202.937 96.696C201.849 97.848 201.001 99.192 200.393 100.728C199.785 102.232 199.481 103.848 199.481 105.576Z" fill="url(#paint1_linear_3_10)"/>
<defs>
<linearGradient id="paint0_linear_3_10" x1="74.8125" y1="6.21843" x2="74.8125" y2="136.806" gradientUnits="userSpaceOnUse">
<stop offset="1"/>
</linearGradient>
<linearGradient id="paint1_linear_3_10" x1="150" y1="86.5" x2="308" y2="86.5" gradientUnits="userSpaceOnUse">
<stop offset="1"/>
</linearGradient>
</defs>
</svg>
