<svg width="473" height="197" viewBox="0 0 473 197" fill="none" xmlns="http://www.w3.org/2000/svg">
<path d="M156.09 114.917C154.955 122.755 152.198 130.274 147.995 136.999C143.792 143.723 138.233 149.508 131.67 153.988C130.02 147.175 119.873 141.594 106.59 140.034C107.993 130.266 110.88 121.155 112.86 115.902C115.995 117.872 119.625 119.021 123.75 119.021C153.037 119.021 148.5 69.7708 148.5 69.7708C148.5 69.7708 144.375 77.9792 132 77.9792H123.75C120.08 77.9781 116.477 78.9513 113.311 80.7983C110.145 82.6454 107.532 85.2993 105.742 88.4863C103.951 91.6734 103.047 95.2781 103.124 98.9286C103.2 102.579 104.255 106.143 106.177 109.253C111.622 103.589 117.48 98.5 123.75 94.3958C112.86 105.313 104.528 119.021 99 132.154C93.8025 122.058 87.285 114.342 82.5 110.812C86.3775 112.454 90.0075 114.917 93.4725 117.379C94.38 115.409 94.875 113.193 94.875 110.812C94.4625 88.4037 57.75 90.2917 57.75 90.2917C60.3075 93.7392 61.875 98.0896 61.875 102.604V110.812C61.875 119.842 69.3 127.229 78.375 127.229C82.5 127.229 86.2125 125.752 89.1 123.125C90.9975 128.296 92.4 134.206 93.1425 139.87C78.9525 141.101 68.0625 146.847 66.33 154.07C51.2325 143.646 41.25 126.326 41.25 106.708C41.25 75.0242 67.155 49.25 99 49.25V73.875L140.25 41.0417L99 8.20833V32.8333C79.3077 32.8333 60.4219 40.6166 46.4973 54.4708C32.5727 68.3251 24.75 87.1155 24.75 106.708C24.75 126.301 32.5727 145.092 46.4973 158.946C60.4219 172.8 79.3077 180.583 99 180.583C137.198 180.583 168.63 151.854 172.755 114.917H156.09Z" fill="url(#paint0_linear_2_9)"/>
<path d="M202.992 52.296H223.584V56.76H207.648V67.848H221.616V72.264H207.648V87H202.992V52.296ZM229.414 87L244.582 50.856H244.87L259.99 87H254.662L243.334 58.152L246.646 55.992L233.974 87H229.414ZM238.294 73.848H251.206L252.742 77.88H236.95L238.294 73.848ZM280.542 52.296C282.302 52.296 283.918 52.536 285.39 53.016C286.894 53.464 288.19 54.152 289.278 55.08C290.398 55.976 291.262 57.096 291.87 58.44C292.51 59.752 292.83 61.288 292.83 63.048C292.83 64.424 292.622 65.768 292.206 67.08C291.822 68.392 291.166 69.592 290.238 70.68C289.31 71.736 288.094 72.6 286.59 73.272C285.118 73.912 283.294 74.232 281.118 74.232H275.982V87H271.326V52.296H280.542ZM281.022 69.768C282.398 69.768 283.534 69.56 284.43 69.144C285.358 68.728 286.078 68.2 286.59 67.56C287.102 66.888 287.47 66.168 287.694 65.4C287.918 64.632 288.03 63.912 288.03 63.24C288.03 62.536 287.902 61.816 287.646 61.08C287.422 60.312 287.038 59.608 286.494 58.968C285.982 58.328 285.294 57.8 284.43 57.384C283.598 56.968 282.574 56.76 281.358 56.76H275.982V69.768H281.022ZM286.734 72.408L295.806 87H290.43L281.214 72.552L286.734 72.408ZM307.767 87V51.192H307.815L326.007 77.016L324.039 76.632L342.183 51.192H342.279V87H337.671V61.752L337.959 64.104L324.855 82.632H324.759L311.463 64.104L312.279 61.944V87H307.767ZM230.592 131.784C230.144 132.232 229.472 132.664 228.576 133.08C227.712 133.496 226.736 133.88 225.648 134.232C224.56 134.584 223.44 134.856 222.288 135.048C221.136 135.272 220.048 135.384 219.024 135.384C216.208 135.384 213.664 134.952 211.392 134.088C209.152 133.224 207.216 132.04 205.584 130.536C203.984 129 202.752 127.192 201.888 125.112C201.056 123.032 200.64 120.776 200.64 118.344C200.64 115.304 201.12 112.632 202.08 110.328C203.04 107.992 204.352 106.04 206.016 104.472C207.68 102.872 209.584 101.672 211.728 100.872C213.904 100.072 216.192 99.672 218.592 99.672C220.704 99.672 222.656 99.912 224.448 100.392C226.272 100.872 227.824 101.48 229.104 102.216L227.28 107.4C226.672 107.048 225.888 106.712 224.928 106.392C223.968 106.04 222.992 105.768 222 105.576C221.04 105.384 220.144 105.288 219.312 105.288C217.296 105.288 215.488 105.576 213.888 106.152C212.32 106.696 210.976 107.512 209.856 108.6C208.736 109.688 207.872 111.016 207.264 112.584C206.688 114.12 206.4 115.88 206.4 117.864C206.4 119.656 206.704 121.288 207.312 122.76C207.952 124.232 208.832 125.496 209.952 126.552C211.104 127.608 212.448 128.424 213.984 129C215.552 129.544 217.28 129.816 219.168 129.816C220.256 129.816 221.312 129.72 222.336 129.528C223.36 129.336 224.224 129.032 224.928 128.616V122.808H218.4V117.432H230.592V131.784ZM241.721 117.576C241.721 115.144 242.185 112.856 243.113 110.712C244.041 108.568 245.321 106.664 246.953 105C248.585 103.336 250.473 102.04 252.617 101.112C254.793 100.152 257.113 99.672 259.577 99.672C262.009 99.672 264.297 100.152 266.441 101.112C268.617 102.04 270.521 103.336 272.153 105C273.817 106.664 275.113 108.568 276.041 110.712C277.001 112.856 277.481 115.144 277.481 117.576C277.481 120.04 277.001 122.344 276.041 124.488C275.113 126.632 273.817 128.536 272.153 130.2C270.521 131.832 268.617 133.112 266.441 134.04C264.297 134.936 262.009 135.384 259.577 135.384C257.081 135.384 254.761 134.936 252.617 134.04C250.473 133.112 248.585 131.848 246.953 130.248C245.321 128.616 244.041 126.728 243.113 124.584C242.185 122.408 241.721 120.072 241.721 117.576ZM247.481 117.576C247.481 119.304 247.785 120.92 248.393 122.424C249.033 123.928 249.913 125.256 251.033 126.408C252.153 127.528 253.449 128.408 254.921 129.048C256.393 129.688 257.993 130.008 259.721 130.008C261.385 130.008 262.937 129.688 264.377 129.048C265.849 128.408 267.129 127.528 268.217 126.408C269.305 125.256 270.153 123.928 270.761 122.424C271.401 120.92 271.721 119.304 271.721 117.576C271.721 115.816 271.401 114.184 270.761 112.68C270.121 111.176 269.257 109.848 268.169 108.696C267.081 107.544 265.801 106.648 264.329 106.008C262.857 105.368 261.273 105.048 259.577 105.048C257.881 105.048 256.297 105.368 254.825 106.008C253.353 106.648 252.057 107.544 250.937 108.696C249.849 109.848 249.001 111.192 248.393 112.728C247.785 114.232 247.481 115.848 247.481 117.576Z" fill="url(#paint1_linear_2_9)"/>
<defs>
<linearGradient id="paint0_linear_2_9" x1="98.7525" y1="8.20833" x2="98.7525" y2="180.583" gradientUnits="userSpaceOnUse">
<stop stop-color="#89D32D"/>
<stop offset="1" stop-color="#B8DA23"/>
</linearGradient>
<linearGradient id="paint1_linear_2_9" x1="198" y1="98.5" x2="473" y2="98.5" gradientUnits="userSpaceOnUse">
<stop stop-color="#B8DA23"/>
<stop offset="1" stop-color="#89D32D"/>
</linearGradient>
</defs>
</svg>
